# xmcd
#
# Track frame offsets: 
#        150
#        15078
#        27836
#        53826
#        69314
#        83806
#        95953
#        108405
#        123003
#        143874
#        158456
#        176520
#        193002
#
# Disc length: 2805 seconds
#
# Revision: 0
# Processed by: cddbd v1.5.2PL0 Copyright (c) Steve Scherf et al.
# Submitted via: ExactAudioCopy v1.0b3
#
DISCID=9b0af30d
DTITLE=Craic - What keeps me here
DYEAR=2011
DGENRE=Folk
TTITLE0=Gravel Walk Set
TTITLE1=When the Boys come rolling Home
TTITLE2=Donegal Danny
TTITLE3=The Foggy Dew
TTITLE4=East at Glendart Set
TTITLE5=Mc Alpine's Fusiliers
TTITLE6=Step it out Mary
TTITLE7=Building up and tearing England down
TTITLE8=The Lifeboat Mona
TTITLE9=Lizzy Lindsay
TTITLE10=Ed Kelly Set
TTITLE11=Rare ould Mountain Dew
TTITLE12=White, Orange and Green
EXTD=
EXTT0=
EXTT1=
EXTT2=
EXTT3=
EXTT4=
EXTT5=
EXTT6=
EXTT7=
EXTT8=
EXTT9=
EXTT10=
EXTT11=
EXTT12=
PLAYORDER=
